<?xml version="1.0" encoding="utf-8"?>
<!-- Generator: Adobe Illustrator 21.0.0, SVG Export Plug-In . SVG Version: 6.00 Build 0)  -->
<svg version="1.1" id="Capa_1" xmlns="http://www.w3.org/2000/svg" xmlns:xlink="http://www.w3.org/1999/xlink" x="0px" y="0px"
	 viewBox="0 0 32 32" style="enable-background:new 0 0 32 32;" xml:space="preserve">
<style type="text/css">
	.st0{fill:#FFFFFF;}
</style>
<g>
	<g>
		<path class="st0" d="M30.3,16.1c0,0-1.3,0.3-2.9,0.5l-0.8-3.3h0.6V7.8h-2V3.5h-2.1v4.3h-2v5.5h0.6l-0.8,3.3
			c-1.6-0.2-2.9-0.5-2.9-0.5v2.4c0,0,1,0.2,2.3,0.4l-2.3,10l0.7,0.2l-0.2,0.9l0.4,0.1l-0.1,0.4l0.2,0.1l0.1-0.4l0.5,0.1l0.2-0.9
			l0.7,0.2L23,19.2c0.4,0,0.8,0,1.2,0c0.4,0,0.7,0,1.1,0l2.4,10.3l0.7-0.2l0.2,0.9l0.5-0.1l0.1,0.4l0.2-0.1l-0.1-0.4l0.4-0.1
			l-0.2-0.9l0.7-0.2l-2.3-10c1.3-0.2,2.3-0.4,2.3-0.4L30.3,16.1L30.3,16.1z M21.7,8.4h4.9v4.2h-0.1h-1.9h-0.8h-1.9h-0.1V8.4z
			 M20.1,28.7l-1.3-0.3L21,19c0.4,0.1,0.9,0.1,1.4,0.1L20.1,28.7z M22.9,16.7c-0.5,0-0.9-0.1-1.4-0.1l0.8-3.4h1.4L22.9,16.7z
			 M24.2,16.8c-0.2,0-0.4,0-0.6,0l0.6-2.4l0.6,2.4C24.5,16.8,24.4,16.8,24.2,16.8z M24.6,13.2H26l0.8,3.4c-0.5,0-0.9,0.1-1.4,0.1
			L24.6,13.2z M29.5,28.4l-1.3,0.3l-2.3-9.6c0.5,0,0.9-0.1,1.4-0.1L29.5,28.4z"/>
		<path class="st0" d="M1.7,10.5L9.1,32l1.1-2.6l0,0l0.3-0.8L21.9,0L1.7,10.5z M19,4.2L18.8,5l-1.4-0.6l-0.2,0.5l1.4,0.6L18.3,6
			l-0.9-0.4l-0.2,0.5l0.9,0.4l-0.3,0.8l-1.4-0.6l-0.2,0.5l1.4,0.6l-0.2,0.6L16.5,8l-0.2,0.5l1,0.4l-0.3,0.7L15.5,9l-0.2,0.5l1.4,0.6
			l-0.2,0.6l-0.9-0.4l-0.2,0.5l0.9,0.4L16,11.9l-1.4-0.6l-0.2,0.5l1.4,0.6l-0.2,0.6l-0.9-0.4l-0.2,0.5l0.9,0.4l-0.3,0.7l0,0L15,14.5
			l-1-0.4l-0.2,0.5l1.1,0.4l-0.2,0.5l-0.7-0.3l-0.2,0.5l0.7,0.3l-0.3,0.8L13,16.4l-0.2,0.5l1.1,0.4l-0.2,0.5L13,17.6l-0.2,0.5
			l0.6,0.3l-0.3,0.7l-1.2-0.5l-0.2,0.5l1.2,0.5l-0.2,0.5L12,19.9l-0.2,0.5l0.8,0.3l-0.3,0.8L11,21l-0.2,0.5L12,22l-0.2,0.5L11,22.2
			l-0.2,0.5l0.8,0.3l-0.3,0.7l-1.2-0.5l-0.2,0.5l1.2,0.5l-0.2,0.5l-0.8-0.3L9.9,25l0.8,0.3L10.4,26l-1.2-0.5L9,26.1l1.2,0.5L10,27.1
			l-0.8-0.3L9,27.3l0.8,0.3l-0.6,1.6L2.9,10.9l17-8.8l-0.6,1.6l-0.8-0.3l-0.2,0.5L19,4.2z"/>
		<path class="st0" d="M9.5,21.3l5.4-13.5l-8.6,4.4L9.5,21.3z M9.6,18.5l-2-5.9l5.5-2.9L9.6,18.5z"/>
	</g>
</g>
</svg>
