<?xml version="1.0" encoding="utf-8"?>
<!-- Generator: Adobe Illustrator 21.0.0, SVG Export Plug-In . SVG Version: 6.00 Build 0)  -->
<svg version="1.1" id="Layer_1" xmlns="http://www.w3.org/2000/svg" xmlns:xlink="http://www.w3.org/1999/xlink" x="0px" y="0px"
	 viewBox="0 0 512 512" style="enable-background:new 0 0 512 512;" xml:space="preserve">
<style type="text/css">
	.st0{fill:#FFFFFF;}
</style>
<path class="st0" d="M512,70c0-11-9-20-20-20c-13.3,0-458.7,0-472,0C9,50,0,59,0,70v372c0,11,9,20,20,20c0.1,0,471.9-0.1,472-0.1
	c11,0,20-9,20-20C512,426.8,512,86,512,70z M236,422H40V90h196V422z M472,421.9H276V276h196V421.9z M472,235.9H276V90h196V235.9z
	 M69,162.9c0-11,9-20,20-20h98c11,0,20,9,20,20s-9,20-20,20H89C78,182.9,69,173.9,69,162.9z M69,256c0-11,9-20,20-20h98
	c11,0,20,9,20,20s-9,20-20,20H89C78,276,69,267,69,256z M69,349.1c0-11,9-20,20-20h98c11,0,20,9,20,20s-9,20-20,20H89
	C78,369.1,69,360.1,69,349.1z"/>
</svg>
