<?xml version="1.0" encoding="utf-8"?>
<!-- Generator: Adobe Illustrator 21.0.0, SVG Export Plug-In . SVG Version: 6.00 Build 0)  -->
<svg version="1.1" id="Layer_1" xmlns="http://www.w3.org/2000/svg" xmlns:xlink="http://www.w3.org/1999/xlink" x="0px" y="0px"
	 viewBox="0 0 512 512" style="enable-background:new 0 0 512 512;" xml:space="preserve">
<style type="text/css">
	.st0{fill:#FFFFFF;}
</style>
<path class="st0" d="M500,11.6c-14.7-14.7-38.5-15.5-54.1-1.8L136,281.1l-1.8,1.5l-36.8,61.1c-19.8-0.8-39.8,6.4-54.8,21.4
	c-16.1,16.1-28,43.1-35.5,80.3c-5.3,26.6-6.4,48.8-6.4,49.7L0,512l16.8-1.2c0.9-0.1,23.5-1.7,50.4-7.3c37.6-7.9,64.3-19.5,79.3-34.5
	c15.1-15.1,22.2-35.1,21.4-54.8l61.1-36.8L501.8,65.7C515.5,50,514.7,26.3,500,11.6z M179,283.4l21.4-18.7l46.6,46.6l-18.7,21.4
	L179,283.4z M125.2,447.8c-18,18-63.9,27.5-93.1,31.3c3.3-28.5,12.2-73.3,31.6-92.7c16.9-16.9,44.5-16.9,61.4,0
	S142.2,430.8,125.2,447.8z M146.4,365.1c-5.6-5.6-12-10.1-18.7-13.6l29-48.1l51.4,51.4l-48.1,29
	C156.6,377.1,152.1,370.8,146.4,365.1z M479.3,45.9L266.8,288.6L223,244.8L465.7,32.3c3.8-3.3,9.6-3.1,13.1,0.4
	S482.6,42.1,479.3,45.9z"/>
</svg>
