<?xml version="1.0" encoding="utf-8"?>
<!-- Generator: Adobe Illustrator 21.0.0, SVG Export Plug-In . SVG Version: 6.00 Build 0)  -->
<svg version="1.1" id="Capa_1" xmlns="http://www.w3.org/2000/svg" xmlns:xlink="http://www.w3.org/1999/xlink" x="0px" y="0px"
	 viewBox="0 0 480 480" style="enable-background:new 0 0 480 480;" xml:space="preserve">
<style type="text/css">
	.st0{fill:#FFFFFF;}
</style>
<g>
	<g>
		<g>
			<path class="st0" d="M400,208h-27.6c-7.2-33.7-25.7-63.9-52.4-85.6V8c0-4.4-3.6-8-8-8H136c-4.4,0-8,3.6-8,8v114.3
				c-65,52.9-74.9,148.4-22,213.4c6.6,8.1,13.9,15.4,22,22V472c0,4.4,3.6,8,8,8h176c4.4,0,8-3.6,8-8V357.6
				c26.7-21.7,45.3-51.9,52.5-85.6H400c4.4,0,8-3.6,8-8v-48C408,211.6,404.4,208,400,208z M304,16v94.8c-1.9-1.2-3.9-2.3-5.9-3.4
				c-0.9-0.5-1.8-1.1-2.7-1.6c-3.4-1.8-6.9-3.5-10.4-5.1c-0.8-0.3-1.6-0.6-2.3-0.9c-2.8-1.2-5.6-2.3-8.4-3.3
				c-1.3-0.4-2.6-0.8-3.8-1.2c-2.4-0.8-4.8-1.5-7.3-2.1c-1.4-0.4-2.8-0.7-4.2-1.1c-2.4-0.6-4.8-1.1-7.3-1.5
				c-1.4-0.3-2.8-0.5-4.3-0.7c-2.6-0.4-5.3-0.7-7.9-1c-1.2-0.1-2.5-0.3-3.7-0.4C231.9,88.2,228,88,224,88c-4,0-7.9,0.2-11.8,0.5
				c-1.3,0.1-2.5,0.3-3.7,0.4c-2.6,0.3-5.3,0.6-7.9,1c-1.4,0.2-2.9,0.5-4.3,0.7c-2.4,0.4-4.8,0.9-7.2,1.5c-1.4,0.3-2.8,0.7-4.3,1.1
				c-2.4,0.6-4.8,1.4-7.2,2.1c-1.3,0.4-2.6,0.8-3.9,1.3c-2.8,1-5.6,2.1-8.3,3.2c-0.8,0.3-1.6,0.6-2.5,1c-3.5,1.5-6.9,3.2-10.3,5
				c-0.9,0.5-1.8,1.1-2.8,1.6c-2,1.1-3.9,2.2-5.8,3.4l0-94.7H304z M144,464v-94.8c1.9,1.2,3.9,2.3,5.9,3.4c0.9,0.5,1.8,1.1,2.7,1.6
				c3.4,1.8,6.9,3.5,10.4,5.1c0.8,0.3,1.6,0.6,2.3,0.9c2.8,1.2,5.6,2.3,8.4,3.3c1.3,0.4,2.6,0.8,3.8,1.2c2.4,0.8,4.8,1.5,7.3,2.1
				c1.4,0.4,2.8,0.7,4.2,1.1c2.4,0.6,4.8,1.1,7.3,1.5c1.4,0.3,2.8,0.5,4.3,0.7c2.6,0.4,5.3,0.7,7.9,1c1.2,0.1,2.5,0.3,3.7,0.4
				c3.9,0.3,7.8,0.5,11.8,0.5s7.9-0.2,11.8-0.5c1.3-0.1,2.5-0.3,3.7-0.4c2.6-0.3,5.3-0.6,7.9-1c1.4-0.2,2.9-0.5,4.3-0.7
				c2.4-0.4,4.8-0.9,7.2-1.5c1.4-0.3,2.8-0.7,4.3-1.1c2.4-0.6,4.8-1.4,7.2-2.1c1.3-0.4,2.6-0.8,3.9-1.3c2.8-1,5.6-2.1,8.3-3.2
				c0.8-0.3,1.6-0.6,2.4-1c3.5-1.5,6.9-3.2,10.3-5c0.9-0.5,1.9-1.1,2.8-1.6c2-1.1,3.9-2.2,5.8-3.4L304,464H144z M358.1,262.7
				c-5.6,33.7-23.9,64.1-51,84.9c-23.7,18.5-53,28.5-83.1,28.4c-3.8,0-7.6-0.2-11.3-0.5c-4.7-0.4-9.4-1.1-14-2
				c-73.8-13.9-122.3-85-108.3-158.8c6.2-32.7,24.2-62.1,50.5-82.4c59.4-45.9,144.9-34.9,190.8,24.5c13.6,17.7,22.7,38.4,26.5,60.4
				C360.6,232.4,360.6,247.7,358.1,262.7z M392,256h-16.8c0-0.4,0-0.9,0.1-1.4c0.5-4.8,0.8-9.7,0.8-14.6s-0.3-9.8-0.8-14.6
				c0-0.4,0-0.9-0.1-1.4H392V256z"/>
			<path class="st0" d="M286.2,166.5L286.2,166.5l-52,51.9c-6.5-3.1-14-3.1-20.5,0l-29.3-29.3c-3.2-3.1-8.2-3-11.3,0.2
				c-3,3.1-3,8,0,11.1l29.3,29.3c-5.6,12-0.4,26.3,11.6,31.9c9.1,4.2,19.8,2.4,27-4.6c7.2-7.2,9.1-18.1,4.6-27.3l51.9-51.9
				c3.1-3.2,3-8.2-0.2-11.3C294.2,163.5,289.3,163.5,286.2,166.5z M229.7,245.7L229.7,245.7c-3.1,3.1-8.2,3.1-11.3,0
				s-3.1-8.2,0-11.3s8.2-3.1,11.3,0c1.5,1.5,2.3,3.5,2.3,5.6C232,242.1,231.2,244.2,229.7,245.7z"/>
			<path class="st0" d="M224,144c4.4,0,8-3.6,8-8v-16c0-4.4-3.6-8-8-8s-8,3.6-8,8v16C216,140.4,219.6,144,224,144z"/>
			<path class="st0" d="M224,336c-4.4,0-8,3.6-8,8v16c0,4.4,3.6,8,8,8s8-3.6,8-8v-16C232,339.6,228.4,336,224,336z"/>
			<path class="st0" d="M120,232h-16c-4.4,0-8,3.6-8,8s3.6,8,8,8h16c4.4,0,8-3.6,8-8S124.4,232,120,232z"/>
			<path class="st0" d="M344,232h-16c-4.4,0-8,3.6-8,8s3.6,8,8,8h16c4.4,0,8-3.6,8-8S348.4,232,344,232z"/>
		</g>
	</g>
</g>
</svg>
